<svg width="24" height="24" viewBox="0 0 24 24" fill="none" xmlns="http://www.w3.org/2000/svg">
<path d="M13.05 16.2522H11.17C9.84001 16.2522 8.75 15.1322 8.75 13.7522C8.75 13.3422 9.09 13.0022 9.5 13.0022C9.91 13.0022 10.25 13.3422 10.25 13.7522C10.25 14.3022 10.66 14.7522 11.17 14.7522H13.05C13.44 14.7522 13.75 14.4022 13.75 13.9722C13.75 13.4322 13.6 13.3522 13.26 13.2322L10.25 12.1822C9.61 11.9522 8.75 11.4922 8.75 10.0222C8.75 8.77219 9.74001 7.74219 10.95 7.74219H12.83C14.16 7.74219 15.25 8.86219 15.25 10.2422C15.25 10.6522 14.91 10.9922 14.5 10.9922C14.09 10.9922 13.75 10.6522 13.75 10.2422C13.75 9.69219 13.34 9.24219 12.83 9.24219H10.95C10.56 9.24219 10.25 9.59219 10.25 10.0222C10.25 10.5622 10.4 10.6422 10.74 10.7622L13.75 11.8122C14.39 12.0422 15.25 12.5022 15.25 13.9722C15.25 15.2322 14.26 16.2522 13.05 16.2522Z" fill="#A72F3B"/>
<path d="M12 17.25C11.59 17.25 11.25 16.91 11.25 16.5V7.5C11.25 7.09 11.59 6.75 12 6.75C12.41 6.75 12.75 7.09 12.75 7.5V16.5C12.75 16.91 12.41 17.25 12 17.25Z" fill="#A72F3B"/>
<path d="M12 22.75C6.07 22.75 1.25 17.93 1.25 12C1.25 6.07 6.07 1.25 12 1.25C12.41 1.25 12.75 1.59 12.75 2C12.75 2.41 12.41 2.75 12 2.75C6.9 2.75 2.75 6.9 2.75 12C2.75 17.1 6.9 21.25 12 21.25C17.1 21.25 21.25 17.1 21.25 12C21.25 11.59 21.59 11.25 22 11.25C22.41 11.25 22.75 11.59 22.75 12C22.75 17.93 17.93 22.75 12 22.75Z" fill="#A72F3B"/>
<path d="M22 6.75C21.59 6.75 21.25 6.41 21.25 6V2.75H18C17.59 2.75 17.25 2.41 17.25 2C17.25 1.59 17.59 1.25 18 1.25H22C22.41 1.25 22.75 1.59 22.75 2V6C22.75 6.41 22.41 6.75 22 6.75Z" fill="#A72F3B"/>
<path d="M16.9995 7.75141C16.8095 7.75141 16.6195 7.6814 16.4695 7.5314C16.1795 7.2414 16.1795 6.76141 16.4695 6.47141L21.4695 1.47141C21.7595 1.18141 22.2395 1.18141 22.5295 1.47141C22.8195 1.76141 22.8195 2.2414 22.5295 2.5314L17.5295 7.5314C17.3795 7.6814 17.1895 7.75141 16.9995 7.75141Z" fill="#A72F3B"/>
</svg>
